<svg xmlns="http://www.w3.org/2000/svg" viewBox="0 0 24 24" fill="none" role="img" aria-label="SureDonation">
  <path d="M0 3.64405C0 1.6315 1.62712 0 3.63425 0H20.2517C22.2588 0 23.886 1.6315 23.886 3.64405V20.3063C23.886 22.3188 22.2588 23.9503 20.2517 23.9503H3.63425C1.62712 23.9503 0 22.3188 0 20.3063V3.64405Z" fill="#00A2D8"/>
  <path d="M12.6516 5.79655C14.4525 3.99075 17.3723 3.99075 19.1734 5.79655C20.9742 7.60234 20.9742 10.5301 19.1734 12.3359L17.5686 13.9451C17.2776 14.2368 16.8057 14.2368 16.5147 13.9451C16.2237 13.6533 16.2237 13.1802 16.5147 12.8884L18.1196 11.2793C19.3385 10.0571 19.3385 8.07537 18.1196 6.85312C16.9007 5.6309 14.9243 5.63092 13.7054 6.85312L11.3607 9.20415C11.0701 9.49552 11.0701 9.96791 11.3607 10.2593C11.6513 10.5506 12.1224 10.5506 12.413 10.2593L13.4659 9.20346C13.7569 8.91169 14.2288 8.91169 14.5198 9.20346C14.8107 9.49523 14.8107 9.96828 14.5198 10.26L13.4667 11.3159C12.5942 12.1909 11.1794 12.1909 10.3069 11.3159C9.43429 10.441 9.43429 9.02249 10.3069 8.14757L10.8879 7.56486L10.1781 6.85312C8.95914 5.63089 6.98277 5.63089 5.76382 6.85312C4.54486 8.07537 4.54488 10.0571 5.76382 11.2793L12.6985 18.2326C12.9895 18.5244 12.9895 18.9974 12.6985 19.2892C12.4075 19.581 11.9358 19.581 11.6448 19.2892L4.71008 12.3359C2.90915 10.5301 2.90913 7.60233 4.71008 5.79655C6.51102 3.99075 9.43091 3.99075 11.2318 5.79655L11.9417 6.50827L12.6516 5.79655ZM11.8605 14.9781C12.1515 14.6863 12.6233 14.6863 12.9143 14.9781L14.5397 16.6079C14.8307 16.8996 14.8307 17.3727 14.5397 17.6645C14.2487 17.9562 13.7769 17.9562 13.4859 17.6645L11.8605 16.0347C11.5695 15.7429 11.5695 15.2699 11.8605 14.9781ZM13.6482 13.1856C13.9392 12.8939 14.4109 12.8939 14.7019 13.1856L16.3273 14.8154C16.6183 15.1072 16.6183 15.5802 16.3273 15.872C16.0363 16.1638 15.5645 16.1638 15.2735 15.872L13.6482 14.2422C13.3572 13.9504 13.3572 13.4774 13.6482 13.1856Z" fill="#FFFFFF"/>
</svg>
