<svg preserveAspectRatio="none" width="100%" height="100%" overflow="visible" style="display: block;" viewBox="4 4 16 16" fill="none" xmlns="http://www.w3.org/2000/svg">
<path id="Vector" d="M18.8528 10.5483C18.9879 10.1422 19.0569 9.71708 19.0569 9.28915C19.0569 8.58104 18.8683 7.88571 18.5105 7.27465C17.7915 6.02317 16.4578 5.25053 15.0144 5.25053C14.7304 5.25053 14.446 5.28053 14.1684 5.34012C13.7944 4.91875 13.3353 4.58145 12.8215 4.35045C12.3076 4.11944 11.7506 4 11.1872 3.99998H11.1619C11.1593 4.00007 11.1554 4.00007 11.1524 4.00007C9.40419 4.00007 7.85386 5.12813 7.31639 6.7912C6.19096 7.02129 5.21942 7.72709 4.65139 8.72489C4.2947 9.33966 4.10673 10.0377 4.1065 10.7485C4.10665 11.7473 4.47744 12.7106 5.14709 13.4517C5.01191 13.8578 4.94297 14.2829 4.94291 14.7109C4.94297 15.419 5.13158 16.1143 5.48934 16.7254C6.20822 17.9772 7.54204 18.7494 8.98561 18.7494C9.26983 18.7494 9.55325 18.7194 9.83116 18.6598C10.2052 19.0812 10.6643 19.4185 11.1782 19.6495C11.6921 19.8805 12.2492 19.9999 12.8126 20H12.8379L12.8482 19.9999C14.5974 19.9999 16.1472 18.8719 16.6847 17.2073C17.8101 16.9771 18.7816 16.2713 19.3497 15.2735C19.706 14.6593 19.8936 13.9618 19.8935 13.2517C19.8934 12.2529 19.5226 11.2896 18.853 10.5485L18.8528 10.5483ZM12.8389 18.954H12.8348C12.1349 18.9537 11.4572 18.7082 10.9195 18.2601C10.9515 18.2429 10.983 18.225 11.0142 18.2064L14.1999 16.3662C14.2794 16.321 14.3455 16.2555 14.3915 16.1764C14.4375 16.0974 14.4618 16.0075 14.4618 15.916V11.4217L15.8083 12.1992C15.8227 12.2063 15.8325 12.2202 15.8345 12.2361V15.9556C15.8327 17.6092 14.4927 18.9507 12.8389 18.954ZM6.39672 16.2026C6.13358 15.7475 5.99495 15.2312 5.99478 14.7056C5.99478 14.5342 6.00976 14.3623 6.03892 14.1934C6.06259 14.2076 6.10392 14.2328 6.13356 14.2499L9.31934 16.09C9.39879 16.1363 9.4891 16.1607 9.58106 16.1607C9.67301 16.1607 9.76332 16.1363 9.84275 16.09L13.7322 13.8441V15.3992C13.7327 15.4071 13.7311 15.415 13.7278 15.4222C13.7244 15.4294 13.7193 15.4357 13.713 15.4405L10.4925 17.2999C10.0368 17.5621 9.52027 17.7002 8.99448 17.7004C8.46817 17.7003 7.95113 17.5619 7.49519 17.299C7.03926 17.036 6.66045 16.6579 6.39676 16.2024L6.39672 16.2026ZM5.55864 9.24778C5.90852 8.64001 6.46099 8.17465 7.11938 7.93315C7.11938 7.9606 7.1178 8.00917 7.1178 8.04294V11.7233L7.11775 11.7264C7.11777 11.8177 7.14197 11.9075 7.1879 11.9865C7.23383 12.0655 7.29984 12.1309 7.37924 12.1762L11.2688 14.4217L9.9222 15.1992C9.91556 15.2036 9.90793 15.2062 9.90001 15.2069C9.89208 15.2076 9.88411 15.2064 9.87679 15.2033L6.65601 13.3423C6.20069 13.0785 5.82268 12.6997 5.55988 12.2438C5.29708 11.788 5.15871 11.271 5.15864 10.7448C5.15885 10.2195 5.29683 9.70331 5.55881 9.24791L5.55864 9.24778ZM16.6218 11.8223L12.7323 9.57645L14.0789 8.79925C14.0855 8.79486 14.0931 8.79219 14.101 8.79147C14.109 8.79075 14.117 8.792 14.1243 8.79512L17.3451 10.6545C18.2721 11.1901 18.844 12.1805 18.844 13.2515C18.844 14.5077 18.0602 15.6318 16.8816 16.0656V12.2752C16.8817 12.2738 16.8817 12.2723 16.8817 12.271C16.8817 12.0857 16.7824 11.9144 16.6218 11.8223ZM17.9621 9.80513C17.9384 9.7906 17.8971 9.7657 17.8674 9.74866L14.6816 7.90847C14.6022 7.86217 14.5119 7.83776 14.42 7.83771C14.3281 7.83771 14.2377 7.86222 14.1584 7.90847L10.2688 10.1543V8.59925L10.2688 8.59657C10.2688 8.58907 10.2705 8.58167 10.2739 8.57496C10.2773 8.56825 10.2821 8.56242 10.2881 8.55792L13.5086 6.70007C13.9641 6.43745 14.4807 6.29919 15.0065 6.29915C16.6624 6.29915 18.0053 7.64202 18.0053 9.29789C18.0052 9.46781 17.9907 9.63742 17.9621 9.80491V9.80513ZM9.53678 12.5767L8.18991 11.7992C8.18285 11.7957 8.17676 11.7905 8.17219 11.7841C8.16763 11.7776 8.16472 11.7701 8.16374 11.7623V8.04285C8.16444 6.38782 9.50731 5.0461 11.1625 5.0461C11.8635 5.04625 12.5423 5.29181 13.0812 5.74017C13.0493 5.75744 13.0177 5.77533 12.9865 5.79384L9.80077 7.63398C9.72128 7.67921 9.65519 7.74468 9.60921 7.82373C9.56323 7.90278 9.53899 7.9926 9.53897 8.08405V8.08703L9.53678 12.5767ZM10.2682 10.9996L12.0006 9.99912L13.7328 10.999V12.9994L12.0006 13.9993L10.2682 12.9994V10.9996Z" fill="var(--fill-0, black)"/>
</svg>
